<svg width="1353" height="646" viewBox="0 0 1353 646" fill="none" xmlns="http://www.w3.org/2000/svg">
<g clip-path="url(#clip0)">
<path d="M825.402 402.394C825.273 402.394 825.145 402.372 825.016 402.327C824.823 402.26 824.694 402.126 824.662 401.97L816.9 375.996C816.868 375.862 816.9 375.706 817.029 375.595C817.158 375.483 817.351 375.394 817.544 375.372L1009.48 359.952C1009.9 359.908 1010.22 360.109 1010.32 360.354C1010.42 360.622 1010.19 360.89 1009.8 360.956L825.628 402.35C825.563 402.394 825.499 402.394 825.402 402.394ZM818.575 376.353L825.982 401.212L1002.11 361.626L818.575 376.353Z" fill="#D7D7D7"/>
<path d="M1328.95 449.857C1328.85 449.857 1328.76 449.835 1328.66 449.812L1009.29 360.956C1009.03 360.89 1008.87 360.733 1008.84 360.555C1008.81 360.376 1008.9 360.198 1009.1 360.064L1170.79 267.727C1170.96 267.638 1171.18 267.593 1171.41 267.616C1171.63 267.638 1171.83 267.727 1171.92 267.861L1329.59 449.054C1329.76 449.254 1329.72 449.5 1329.53 449.656C1329.37 449.79 1329.18 449.857 1328.95 449.857ZM1011.06 360.332L1327.15 448.273L1171.08 268.954L1011.06 360.332Z" fill="#D7D7D7"/>
<path d="M1328.95 449.857C1328.69 449.857 1328.44 449.768 1328.31 449.611L1170.63 268.419C1170.54 268.285 1170.5 268.129 1170.57 267.995C1170.63 267.861 1170.79 267.727 1170.99 267.683L1303.48 226.624C1303.7 226.557 1303.96 226.557 1304.19 226.647C1304.41 226.736 1304.54 226.892 1304.54 227.048L1329.72 449.277C1329.76 449.522 1329.53 449.745 1329.21 449.812C1329.11 449.857 1329.01 449.857 1328.95 449.857ZM1172.37 268.397L1327.95 447.179L1303.09 227.896L1172.37 268.397Z" fill="#D7D7D7"/>
<path d="M1328.95 449.857C1328.92 449.857 1328.92 449.857 1328.89 449.857C1328.53 449.835 1328.24 449.634 1328.21 449.366L1303.03 227.137C1302.99 226.981 1303.09 226.847 1303.22 226.736C1303.35 226.624 1303.57 226.557 1303.77 226.557L1414.1 225.91C1414.26 225.932 1414.55 225.977 1414.71 226.111C1414.84 226.245 1414.9 226.401 1414.84 226.557L1329.72 449.433C1329.59 449.701 1329.3 449.857 1328.95 449.857ZM1304.57 227.628L1329.37 446.242L1413.1 227.004L1304.57 227.628Z" fill="#D7D7D7"/>
<path d="M1590.68 458.381L1428.08 501.514L1330.91 449.723L1590.9 430.421V429.372L1328.89 448.83C1328.56 448.853 1328.34 449.009 1328.24 449.21C1328.14 449.41 1328.27 449.634 1328.5 449.768L1427.5 502.541C1427.62 502.608 1427.79 502.652 1427.95 502.652C1428.04 502.652 1428.14 502.653 1428.24 502.608L1590.71 459.497L1590.68 458.381Z" fill="#D7D7D7"/>
<path d="M1303.77 227.628C1303.48 227.628 1303.19 227.495 1303.06 227.294C1302.93 227.093 1303.03 226.87 1303.25 226.714L1413.1 153.924C1413.33 153.79 1413.65 153.746 1413.91 153.813C1414.19 153.902 1414.36 154.08 1414.36 154.281L1414.81 226.423C1414.81 226.714 1414.48 226.937 1414.07 226.959L1303.77 227.628ZM1412.87 155.531L1305.67 226.58L1413.33 225.955L1412.87 155.531Z" fill="#D7D7D7"/>
<path d="M913.546 448.384C913.385 448.384 913.224 448.339 913.095 448.272L824.984 402.283C824.694 402.126 824.597 401.836 824.79 401.613C824.984 401.39 825.37 401.278 825.724 401.368L965.588 436.647C965.878 436.714 966.103 436.937 966.071 437.16C966.071 437.383 965.846 437.584 965.524 437.651L913.771 448.362C913.675 448.384 913.61 448.384 913.546 448.384ZM829.911 403.577L913.675 447.291L962.883 437.093L829.911 403.577Z" fill="#D7D7D7"/>
<path d="M965.299 437.673C965.202 437.673 965.138 437.673 965.041 437.651L825.177 402.372C824.887 402.305 824.662 402.104 824.694 401.881C824.694 401.658 824.919 401.457 825.209 401.39L1009.39 359.997C1009.64 359.93 1009.97 359.997 1010.16 360.131C1010.35 360.287 1010.42 360.488 1010.32 360.689L966.039 437.339C965.878 437.539 965.588 437.673 965.299 437.673ZM827.753 401.903L964.88 436.468L1008.29 361.314L827.753 401.903Z" fill="#D7D7D7"/>
<path d="M900.406 613.399C900.374 613.399 900.342 613.399 900.31 613.399C899.923 613.354 899.633 613.131 899.666 612.863L912.805 447.848C912.837 447.625 913.03 447.447 913.352 447.38L965.105 436.669C965.362 436.624 965.652 436.669 965.846 436.803C966.039 436.937 966.135 437.138 966.039 437.316L901.147 613.042C901.05 613.242 900.728 613.399 900.406 613.399ZM914.254 448.272L901.566 607.574L964.235 437.919L914.254 448.272Z" fill="#D7D7D7"/>
<path d="M1328.95 449.857H1328.92L965.266 437.673C965.009 437.673 964.783 437.584 964.654 437.428C964.525 437.294 964.493 437.115 964.59 436.959L1008.87 360.309C1008.94 360.176 1009.1 360.086 1009.29 360.019C1009.48 359.975 1009.68 359.952 1009.87 360.019L1329.24 448.875C1329.59 448.964 1329.79 449.232 1329.69 449.478C1329.63 449.701 1329.3 449.857 1328.95 449.857ZM966.393 436.669L1324.51 448.674L1010 361.18L966.393 436.669Z" fill="#D7D7D7"/>
<path d="M1009.58 361.024C1009.48 361.024 1009.39 361.001 1009.29 360.979C1009.03 360.912 1008.84 360.756 1008.81 360.555L971.514 160.596C971.481 160.396 971.61 160.172 971.9 160.083C972.158 159.972 972.512 159.994 972.737 160.128L1171.7 267.75C1171.89 267.839 1171.99 267.995 1171.99 268.151C1171.99 268.308 1171.89 268.464 1171.7 268.553L1010 360.89C1009.93 360.979 1009.77 361.024 1009.58 361.024ZM973.285 161.734L1010.16 359.484L1170.05 268.174L973.285 161.734Z" fill="#D7D7D7"/>
<path d="M1171.28 268.687C1171.12 268.687 1170.96 268.642 1170.83 268.575L971.868 160.953C971.675 160.842 971.546 160.663 971.578 160.485C971.61 160.306 971.771 160.15 972.029 160.061L1145.35 106.171C1145.58 106.105 1145.84 106.105 1146.03 106.194C1146.25 106.283 1146.38 106.417 1146.42 106.595L1172.05 268.107C1172.08 268.307 1171.92 268.508 1171.66 268.62C1171.54 268.664 1171.41 268.687 1171.28 268.687ZM973.768 160.641L1170.34 266.968L1145 107.399L973.768 160.641Z" fill="#D7D7D7"/>
<path d="M1145.61 107.176C1145.58 107.176 1145.51 107.176 1145.48 107.176C1145.19 107.131 1144.93 106.975 1144.87 106.774L1062.17 -131.253C1062.14 -131.387 1062.17 -131.543 1062.27 -131.655C1062.36 -131.766 1062.56 -131.856 1062.75 -131.878L1412.94 -179.943C1413.23 -179.988 1413.55 -179.898 1413.71 -179.72C1413.87 -179.541 1413.87 -179.318 1413.71 -179.14L1146.25 106.93C1146.13 107.086 1145.87 107.176 1145.61 107.176ZM1063.81 -130.963L1145.93 105.324L1411.46 -178.693L1063.81 -130.963Z" fill="#D7D7D7"/>
<path d="M1171.28 268.687C1171.15 268.687 1171.02 268.665 1170.89 268.62C1170.67 268.531 1170.54 268.397 1170.5 268.218L1144.87 106.707C1144.84 106.484 1145 106.261 1145.32 106.171C1145.61 106.082 1145.97 106.127 1146.19 106.305L1304.31 226.758C1304.48 226.892 1304.54 227.048 1304.51 227.227C1304.44 227.383 1304.28 227.539 1304.09 227.606L1171.6 268.665C1171.47 268.665 1171.37 268.687 1171.28 268.687ZM1146.64 108.18L1171.92 267.37L1302.51 226.914L1146.64 108.18Z" fill="#D7D7D7"/>
<path d="M1303.77 227.628C1303.73 227.628 1303.73 227.628 1303.77 227.628C1303.54 227.628 1303.35 227.561 1303.22 227.45L1145.1 106.997C1144.87 106.819 1144.84 106.573 1145 106.372C1145.16 106.171 1145.51 106.082 1145.84 106.127L1413.84 153.79C1414.1 153.835 1414.32 153.991 1414.39 154.17C1414.45 154.348 1414.39 154.549 1414.2 154.683L1304.35 227.472C1304.15 227.561 1303.96 227.628 1303.77 227.628ZM1147.9 107.577L1303.8 226.334L1412.1 154.571L1147.9 107.577Z" fill="#D7D7D7"/>
<path d="M1413.62 154.817C1413.55 154.817 1413.49 154.817 1413.42 154.794L1145.42 107.131C1145.19 107.086 1145 106.975 1144.9 106.819C1144.81 106.662 1144.84 106.484 1144.97 106.35L1412.42 -179.742C1412.62 -179.943 1412.94 -180.032 1413.26 -179.965C1413.58 -179.898 1413.81 -179.697 1413.81 -179.474L1414.32 154.259C1414.32 154.415 1414.23 154.571 1414.03 154.683C1413.94 154.794 1413.78 154.839 1413.62 154.817ZM1146.83 106.328L1412.87 153.634L1412.36 -177.667L1146.83 106.328Z" fill="#D7D7D7"/>
<path d="M900.406 613.399C900.213 613.399 899.988 613.332 899.859 613.242C899.698 613.108 899.601 612.93 899.666 612.751L964.558 437.026C964.622 436.87 964.783 436.736 965.041 436.669C965.266 436.602 965.524 436.624 965.749 436.736L1241.06 568.502C1241.32 568.614 1241.45 568.837 1241.39 569.038C1241.32 569.238 1241.1 569.395 1240.77 569.439L900.567 613.399C900.471 613.399 900.439 613.399 900.406 613.399ZM965.749 438.008L901.405 612.216L1238.68 568.636L965.749 438.008Z" fill="#D7D7D7"/>
<path d="M1240.61 569.439C1240.45 569.439 1240.32 569.417 1240.2 569.35L964.88 437.584C964.59 437.45 964.493 437.205 964.59 436.981C964.687 436.758 965.009 436.624 965.331 436.624L1328.98 448.808C1329.24 448.808 1329.47 448.92 1329.59 449.076C1329.72 449.232 1329.72 449.411 1329.63 449.567L1241.29 569.149C1241.19 569.283 1241 569.372 1240.81 569.417C1240.74 569.439 1240.68 569.439 1240.61 569.439ZM967.907 437.762L1240.36 568.145L1327.76 449.812L967.907 437.762Z" fill="#D7D7D7"/>
<path d="M1240.61 569.439C1240.42 569.439 1240.23 569.395 1240.1 569.283C1239.87 569.127 1239.81 568.882 1239.97 568.681L1328.31 449.098C1328.4 448.964 1328.6 448.853 1328.82 448.83C1329.05 448.786 1329.27 448.83 1329.43 448.92L1428.43 501.693C1428.62 501.805 1428.75 501.983 1428.72 502.162C1428.69 502.34 1428.56 502.496 1428.3 502.586L1240.97 569.395C1240.84 569.417 1240.74 569.439 1240.61 569.439ZM1329.21 450.125L1242.35 567.699L1426.53 502.006L1329.21 450.125Z" fill="#D7D7D7"/>
<path d="M1240.61 569.439C1240.32 569.439 1240.03 569.305 1239.91 569.104C1239.74 568.859 1239.91 568.569 1240.26 568.435L1427.59 501.626C1427.75 501.559 1427.95 501.559 1428.14 501.581L1499.6 514.814C1499.92 514.881 1500.15 515.081 1500.15 515.305C1500.15 515.55 1499.92 515.751 1499.6 515.818L1240.81 569.395C1240.77 569.439 1240.68 569.439 1240.61 569.439ZM1428.04 502.675L1248.21 566.806L1496.64 515.372L1428.04 502.675Z" fill="#D7D7D7"/>
<path d="M123.025 636.092C122.703 636.092 122.445 635.958 122.316 635.757C122.188 635.512 122.316 635.244 122.639 635.133L336.959 548.174C337.12 548.107 337.345 548.085 337.538 548.129C337.732 548.174 337.893 548.263 337.989 548.375L382.302 603.022C382.431 603.179 382.431 603.357 382.335 603.491C382.238 603.647 382.013 603.759 381.787 603.781L123.154 636.092C123.122 636.07 123.089 636.092 123.025 636.092ZM337.088 549.312L127.115 634.508L380.531 602.866L337.088 549.312Z" fill="#D7D7D7"/>
<path d="M381.658 603.781C381.626 603.781 381.626 603.781 381.594 603.781C381.336 603.759 381.111 603.669 381.014 603.513L336.701 548.865C336.572 548.709 336.572 548.553 336.669 548.397C336.766 548.241 336.959 548.129 337.216 548.107L469.544 529.898C469.866 529.854 470.188 529.943 470.349 530.144C470.51 530.345 470.478 530.568 470.285 530.746L382.303 603.625C382.109 603.714 381.884 603.781 381.658 603.781ZM338.537 548.977L381.819 602.331L467.741 531.17L338.537 548.977Z" fill="#D7D7D7"/>
<path d="M756.099 235.55C756.034 235.55 755.97 235.55 755.906 235.528C755.487 235.461 755.262 235.171 755.358 234.881L796.934 123.956C797.03 123.688 797.449 123.51 797.868 123.577C798.286 123.644 798.512 123.934 798.415 124.224L756.84 235.148C756.743 235.394 756.421 235.55 756.099 235.55Z" fill="#D7D7D7"/>
<path d="M756.099 235.55C755.938 235.55 755.777 235.505 755.616 235.438C755.39 235.305 755.294 235.104 755.358 234.903L796.934 123.978C796.998 123.844 797.127 123.733 797.288 123.644C797.481 123.577 797.675 123.554 797.868 123.599L972.512 160.038C972.802 160.105 973.027 160.284 973.06 160.485C973.092 160.708 972.931 160.909 972.641 160.998L756.421 235.483C756.324 235.528 756.195 235.55 756.099 235.55ZM798.19 124.759L757.226 234.055L970.258 160.663L798.19 124.759Z" fill="#D7D7D7"/>
<path d="M817.673 376.42C817.351 376.42 817.061 376.264 816.965 376.041L755.39 235.171C755.293 234.947 755.422 234.724 755.68 234.59C755.937 234.457 756.292 234.457 756.549 234.59L1010.06 360.064C1010.32 360.198 1010.45 360.421 1010.35 360.622C1010.29 360.823 1010.03 360.979 1009.71 361.001L817.77 376.42C817.705 376.42 817.673 376.42 817.673 376.42ZM757.451 236.353L818.189 375.327L1007.55 360.131L757.451 236.353Z" fill="#D7D7D7"/>
<path d="M1009.58 361.023C1009.42 361.023 1009.29 361.001 1009.13 360.934L755.616 235.461C755.39 235.349 755.293 235.171 755.293 234.992C755.326 234.814 755.487 234.657 755.712 234.568L971.932 160.083C972.158 160.016 972.415 160.016 972.609 160.083C972.834 160.172 972.963 160.306 972.995 160.485L1010.29 360.443C1010.32 360.644 1010.19 360.845 1009.93 360.956C1009.87 360.979 1009.71 361.023 1009.58 361.023ZM757.548 235.104L1008.61 359.372L971.675 161.332L757.548 235.104Z" fill="#D7D7D7"/>
<path d="M685.732 475.094C685.539 475.094 685.313 475.027 685.184 474.916C684.927 474.715 684.927 474.403 685.184 474.202L817.094 375.528C817.287 375.394 817.577 375.327 817.866 375.371C818.124 375.416 818.35 375.572 818.414 375.773L826.175 401.747C826.24 401.948 826.111 402.149 825.885 402.283L686.215 474.983C686.054 475.05 685.893 475.094 685.732 475.094ZM817.222 377L692.012 470.654L824.597 401.658L817.222 377Z" fill="#D7D7D7"/>
<path d="M685.732 475.094C685.442 475.094 685.152 474.96 685.056 474.782C684.927 474.559 685.024 474.291 685.281 474.157L824.952 401.457C825.209 401.323 825.596 401.323 825.854 401.457L913.965 447.447C914.19 447.581 914.319 447.782 914.255 447.982C914.19 448.183 913.933 448.339 913.643 448.384L685.861 475.094C685.829 475.094 685.797 475.094 685.732 475.094ZM825.435 402.528L688.695 473.688L911.678 447.558L825.435 402.528Z" fill="#D7D7D7"/>
<path d="M900.407 613.399C900.213 613.399 900.052 613.354 899.891 613.265L685.249 474.96C685.024 474.827 684.96 474.626 685.056 474.425C685.153 474.224 685.378 474.09 685.668 474.068L913.449 447.358C913.675 447.335 913.9 447.38 914.094 447.491C914.255 447.603 914.351 447.759 914.351 447.915L901.212 612.93C901.212 613.131 901.019 613.309 900.729 613.376C900.6 613.376 900.503 613.399 900.407 613.399ZM687.375 474.916L899.73 611.747L912.741 448.518L687.375 474.916Z" fill="#D7D7D7"/>
<path d="M1591.61 334.179L1330.17 448.183L1414.58 227.16L1592 279.085V277.947L1414.36 225.955C1414.16 225.888 1413.94 225.91 1413.74 225.977C1413.55 226.044 1413.39 226.156 1413.36 226.312L1328.24 449.187C1328.18 449.388 1328.27 449.611 1328.53 449.745C1328.66 449.812 1328.82 449.857 1328.98 449.857C1329.11 449.857 1329.27 449.835 1329.4 449.768L1591.64 335.407L1591.61 334.179Z" fill="#D7D7D7"/>
<path d="M1590.9 429.35L1332.11 448.563L1591.58 335.407V334.157L1328.53 448.875C1328.24 449.009 1328.11 449.254 1328.21 449.5C1328.31 449.723 1328.6 449.857 1328.92 449.857C1328.95 449.857 1328.98 449.857 1329.01 449.857L1590.87 430.421L1590.9 429.35Z" fill="#D7D7D7"/>
<path d="M381.658 603.781C381.433 603.781 381.207 603.714 381.046 603.558C380.853 603.357 380.853 603.09 381.079 602.911L469.061 530.032C469.19 529.921 469.415 529.854 469.641 529.854L643.577 529.43C643.931 529.43 644.253 529.608 644.317 529.854C644.382 530.099 644.189 530.345 643.867 530.434L381.948 603.737C381.851 603.759 381.755 603.781 381.658 603.781ZM470.027 530.902L384.202 601.974L639.68 530.478L470.027 530.902Z" fill="#D7D7D7"/>
<path d="M469.673 530.902C469.319 530.902 468.997 530.724 468.932 530.478C468.868 530.233 469.061 529.987 469.415 529.898L685.507 474.09C685.797 474.023 686.119 474.068 686.344 474.246C686.537 474.402 686.602 474.648 686.441 474.826L644.285 530.211C644.156 530.389 643.899 530.478 643.609 530.501L469.673 530.902ZM684.154 475.54L473.892 529.854L643.126 529.452L684.154 475.54Z" fill="#D7D7D7"/>
<path d="M900.406 613.399C900.31 613.399 900.181 613.376 900.084 613.354L643.287 530.434C643.094 530.367 642.965 530.255 642.9 530.122C642.836 529.988 642.836 529.831 642.933 529.72L685.088 474.336C685.185 474.202 685.41 474.09 685.636 474.068C685.861 474.046 686.119 474.09 686.28 474.202L900.922 612.506C901.179 612.684 901.244 612.975 901.018 613.175C900.89 613.309 900.632 613.399 900.406 613.399ZM644.639 529.72L896.381 611.011L685.958 475.429L644.639 529.72Z" fill="#D7D7D7"/>
<path d="M797.642 124.625C797.385 124.625 797.159 124.536 797.031 124.402C796.805 124.157 796.902 123.844 797.224 123.666L971.739 42.7988C972.094 42.6426 972.545 42.7095 972.802 42.9326C973.028 43.1781 972.931 43.4905 972.609 43.669L798.093 124.536C797.932 124.603 797.803 124.625 797.642 124.625Z" fill="#D7D7D7"/>
<path d="M972.286 161.042C972.222 161.042 972.157 161.042 972.061 161.02L797.417 124.581C797.127 124.514 796.934 124.358 796.901 124.157C796.869 123.956 796.998 123.755 797.223 123.643L971.739 42.7763C971.964 42.6648 972.254 42.6648 972.512 42.754C972.769 42.8433 972.898 43.0218 972.898 43.2226L973.027 160.529C973.027 160.685 972.898 160.841 972.737 160.953C972.608 161.02 972.447 161.042 972.286 161.042ZM799.413 123.911L971.546 159.815L971.417 44.2045L799.413 123.911Z" fill="#D7D7D7"/>
<path d="M972.287 161.042C972.158 161.042 971.997 161.02 971.868 160.953C971.643 160.864 971.514 160.685 971.514 160.507L971.385 43.2005C971.385 43.022 971.514 42.8435 971.739 42.7542C971.965 42.665 972.255 42.6426 972.48 42.7319L1145.93 106.149C1146.19 106.238 1146.35 106.439 1146.35 106.64C1146.35 106.841 1146.16 107.019 1145.9 107.109L972.577 160.998C972.512 161.042 972.416 161.042 972.287 161.042ZM972.931 44.0931L973.06 159.726L1143.9 106.618L972.931 44.0931Z" fill="#D7D7D7"/>
<path d="M1145.61 107.176C1145.48 107.176 1145.39 107.153 1145.26 107.109L971.804 43.6913C971.482 43.5797 971.32 43.2896 971.449 43.0442L1062.17 -131.543C1062.27 -131.766 1062.59 -131.922 1062.91 -131.878C1063.23 -131.856 1063.52 -131.699 1063.62 -131.476L1146.35 106.528C1146.42 106.729 1146.32 106.93 1146.09 107.064C1145.96 107.131 1145.8 107.176 1145.61 107.176ZM973.092 42.9772L1144.48 105.636L1062.75 -129.557L973.092 42.9772Z" fill="#D7D7D7"/>
<path d="M1171.28 275.091C1176.81 275.091 1181.29 271.984 1181.29 268.151C1181.29 264.319 1176.81 261.212 1171.28 261.212C1165.75 261.212 1161.26 264.319 1161.26 268.151C1161.26 271.984 1165.75 275.091 1171.28 275.091Z" fill="#C4C4C4"/>
<path d="M1171.31 261.212C1176.85 261.234 1181.29 264.358 1181.26 268.174C1181.23 272.012 1176.72 275.091 1171.21 275.069C1165.67 275.047 1161.23 271.923 1161.26 268.107C1161.29 264.291 1165.8 261.189 1171.31 261.212ZM1171.34 259.114C1164.16 259.092 1158.27 263.108 1158.23 268.107C1158.2 273.083 1164 277.166 1171.21 277.189C1178.39 277.211 1184.29 273.194 1184.32 268.196C1184.35 263.22 1178.52 259.159 1171.34 259.114Z" fill="white"/>
<path d="M1308.05 227.115C1308.05 225.464 1306.15 224.147 1303.8 224.125C1301.41 224.125 1299.51 225.442 1299.48 227.071C1299.48 228.722 1301.38 230.038 1303.73 230.061C1306.12 230.083 1308.05 228.744 1308.05 227.115Z" fill="#C4C4C4"/>
<path d="M1303.77 224.125C1306.12 224.125 1308.05 225.464 1308.02 227.115C1308.02 228.767 1306.08 230.083 1303.7 230.061C1301.32 230.061 1299.42 228.722 1299.45 227.071C1299.48 225.442 1301.41 224.125 1303.77 224.125ZM1303.8 222.028C1299.77 222.005 1296.49 224.281 1296.46 227.071C1296.42 229.86 1299.71 232.158 1303.73 232.158C1307.76 232.181 1311.04 229.905 1311.08 227.115C1311.08 224.326 1307.82 222.05 1303.8 222.028Z" fill="white"/>
<path d="M965.33 430.979C960.403 430.957 956.41 433.701 956.378 437.116C956.345 440.53 960.307 443.297 965.234 443.319C970.161 443.341 974.154 440.597 974.187 437.182C974.219 433.768 970.258 431.001 965.33 430.979Z" fill="#C4C4C4"/>
<path d="M965.331 430.979C970.258 431.001 974.219 433.768 974.187 437.182C974.155 440.596 970.161 443.341 965.234 443.319C960.307 443.296 956.346 440.529 956.378 437.115C956.41 433.701 960.403 430.957 965.331 430.979ZM965.363 428.881C958.793 428.859 953.415 432.541 953.383 437.115C953.351 441.668 958.664 445.394 965.266 445.416C971.836 445.439 977.214 441.757 977.279 437.182C977.279 432.63 971.933 428.904 965.363 428.881Z" fill="white"/>
<path d="M1240.65 565.066C1237.59 565.066 1235.08 566.762 1235.08 568.904C1235.08 571.024 1237.52 572.764 1240.61 572.764C1243.67 572.764 1246.19 571.068 1246.19 568.926C1246.19 566.806 1243.71 565.088 1240.65 565.066Z" fill="#C4C4C4"/>
<path d="M1240.65 565.066C1243.7 565.066 1246.18 566.806 1246.18 568.926C1246.18 571.046 1243.67 572.764 1240.61 572.764C1237.55 572.764 1235.07 571.024 1235.07 568.904C1235.07 566.784 1237.59 565.066 1240.65 565.066ZM1240.65 562.968C1235.91 562.946 1232.05 565.601 1232.01 568.882C1231.98 572.162 1235.81 574.84 1240.55 574.862C1245.28 574.884 1249.15 572.229 1249.18 568.949C1249.21 565.668 1245.38 562.991 1240.65 562.968Z" fill="white"/>
<path d="M123.057 632.5C120.609 632.5 118.613 633.861 118.613 635.557C118.613 637.253 120.577 638.636 123.025 638.636C125.472 638.636 127.469 637.275 127.469 635.579C127.469 633.883 125.504 632.5 123.057 632.5Z" fill="#C4C4C4"/>
<path d="M123.057 632.5C125.505 632.5 127.469 633.883 127.469 635.579C127.469 637.275 125.472 638.636 123.025 638.636C120.577 638.636 118.613 637.253 118.613 635.557C118.613 633.839 120.61 632.477 123.057 632.5ZM123.057 630.402C118.935 630.38 115.586 632.701 115.586 635.535C115.553 638.368 118.903 640.712 122.993 640.712C127.083 640.712 130.464 638.413 130.464 635.579C130.496 632.745 127.179 630.402 123.057 630.402Z" fill="white"/>
<path d="M337.378 543.644C333.416 543.622 330.196 545.831 330.196 548.576C330.164 551.32 333.352 553.552 337.313 553.552C341.274 553.574 344.495 551.365 344.495 548.62C344.527 545.876 341.339 543.644 337.378 543.644Z" fill="#C4C4C4"/>
<path d="M337.377 543.644C341.339 543.666 344.527 545.898 344.495 548.62C344.462 551.365 341.242 553.574 337.313 553.552C333.352 553.529 330.164 551.298 330.196 548.576C330.228 545.831 333.448 543.622 337.377 543.644ZM337.41 541.547C331.806 541.524 327.201 544.671 327.169 548.553C327.136 552.436 331.677 555.627 337.281 555.649C342.884 555.672 347.49 552.525 347.522 548.643C347.554 544.738 343.013 541.569 337.41 541.547Z" fill="white"/>
<path d="M756.099 232.024C753.715 232.024 751.783 233.341 751.751 234.992C751.751 236.644 753.651 237.982 756.034 238.005C758.417 238.005 760.349 236.688 760.382 235.037C760.414 233.386 758.482 232.047 756.099 232.024Z" fill="#C4C4C4"/>
<path d="M756.099 232.024C758.482 232.024 760.414 233.386 760.382 235.037C760.382 236.688 758.417 238.027 756.034 238.005C753.651 238.005 751.719 236.643 751.751 234.992C751.783 233.363 753.716 232.024 756.099 232.024ZM756.131 229.927C752.073 229.905 748.756 232.181 748.756 234.992C748.724 237.804 752.009 240.102 756.066 240.102C760.124 240.124 763.441 237.848 763.441 235.037C763.441 232.248 760.189 229.949 756.131 229.927Z" fill="white"/>
<path d="M1009.64 353.66C1004.2 353.638 999.789 356.672 999.757 360.443C999.724 364.215 1004.1 367.272 1009.55 367.294C1014.99 367.316 1019.4 364.281 1019.43 360.51C1019.47 356.762 1015.09 353.682 1009.64 353.66Z" fill="#C4C4C4"/>
<path d="M1009.64 353.66C1015.09 353.682 1019.47 356.739 1019.43 360.51C1019.4 364.281 1014.99 367.316 1009.55 367.294C1004.1 367.272 999.725 364.214 999.757 360.443C999.757 356.694 1004.2 353.637 1009.64 353.66ZM1009.64 351.562C1002.56 351.54 996.73 355.512 996.697 360.443C996.665 365.352 1002.4 369.391 1009.51 369.414C1016.6 369.436 1022.43 365.464 1022.46 360.533C1022.49 355.623 1016.76 351.607 1009.64 351.562Z" fill="white"/>
<path d="M817.641 379.299C820.346 379.299 822.568 377.782 822.568 375.907C822.568 374.033 820.378 372.493 817.673 372.493C814.968 372.493 812.746 374.01 812.746 375.885C812.746 377.759 814.936 379.299 817.641 379.299Z" fill="#C4C4C4"/>
<path d="M817.673 372.493C820.379 372.493 822.569 374.033 822.569 375.907C822.569 377.782 820.346 379.299 817.641 379.299C814.936 379.299 812.746 377.759 812.746 375.885C812.746 374.01 814.968 372.493 817.673 372.493ZM817.706 370.396C813.326 370.373 809.751 372.828 809.719 375.863C809.687 378.897 813.229 381.374 817.609 381.396C821.989 381.419 825.564 378.964 825.596 375.929C825.628 372.895 822.086 370.418 817.706 370.396Z" fill="white"/>
<path d="M825.435 398.043C822.375 398.043 819.863 399.739 819.863 401.881C819.863 404.001 822.311 405.742 825.402 405.742C828.462 405.742 830.974 404.046 830.974 401.903C831.006 399.784 828.526 398.043 825.435 398.043Z" fill="#C4C4C4"/>
<path d="M825.435 398.043C828.494 398.043 830.974 399.784 830.974 401.904C830.974 404.023 828.462 405.742 825.403 405.742C822.343 405.742 819.863 404.001 819.863 401.881C819.896 399.739 822.375 398.021 825.435 398.043ZM825.467 395.946C820.733 395.923 816.868 398.579 816.836 401.859C816.804 405.139 820.636 407.817 825.37 407.839C830.104 407.861 833.969 405.206 834.001 401.926C834.033 398.623 830.201 395.946 825.467 395.946Z" fill="white"/>
<path d="M913.546 444.859C911.131 444.859 909.199 446.197 909.167 447.849C909.167 449.522 911.099 450.861 913.482 450.883C915.897 450.883 917.829 449.545 917.862 447.893C917.894 446.22 915.961 444.859 913.546 444.859Z" fill="#C4C4C4"/>
<path d="M913.546 444.859C915.961 444.859 917.894 446.22 917.861 447.893C917.861 449.567 915.897 450.906 913.482 450.883C911.066 450.861 909.134 449.522 909.166 447.849C909.198 446.197 911.163 444.836 913.546 444.859ZM913.578 442.761C909.52 442.739 906.203 445.015 906.171 447.849C906.139 450.66 909.424 452.959 913.514 452.981C917.572 453.003 920.889 450.727 920.921 447.893C920.921 445.082 917.636 442.783 913.578 442.761Z" fill="white"/>
<path d="M1328.98 444.1C1324.8 444.077 1321.41 446.42 1321.38 449.299C1321.35 452.178 1324.73 454.543 1328.89 454.565C1333.07 454.588 1336.45 452.245 1336.49 449.366C1336.52 446.465 1333.17 444.122 1328.98 444.1Z" fill="#C4C4C4"/>
<path d="M1328.98 444.1C1333.17 444.122 1336.52 446.465 1336.49 449.366C1336.45 452.267 1333.07 454.588 1328.89 454.565C1324.7 454.543 1321.35 452.2 1321.38 449.299C1321.41 446.421 1324.83 444.078 1328.98 444.1ZM1329.01 442.002C1323.19 441.98 1318.42 445.26 1318.39 449.299C1318.35 453.338 1323.09 456.64 1328.92 456.663C1334.75 456.685 1339.51 453.405 1339.55 449.366C1339.58 445.327 1334.84 442.025 1329.01 442.002Z" fill="white"/>
<path d="M381.723 596.73C376.506 596.707 372.287 599.608 372.255 603.223C372.223 606.838 376.409 609.761 381.627 609.784C386.844 609.806 391.062 606.905 391.095 603.29C391.127 599.675 386.94 596.752 381.723 596.73Z" fill="#C4C4C4"/>
<path d="M381.723 596.73C386.94 596.752 391.127 599.676 391.094 603.29C391.062 606.905 386.843 609.806 381.626 609.784C376.409 609.762 372.223 606.838 372.255 603.224C372.287 599.609 376.506 596.708 381.723 596.73ZM381.723 594.633C374.863 594.61 369.26 598.448 369.228 603.201C369.195 607.954 374.735 611.837 381.594 611.859C388.454 611.882 394.057 608.043 394.089 603.29C394.154 598.537 388.615 594.655 381.723 594.633Z" fill="white"/>
<path d="M475.083 530.412C475.083 528.336 472.668 526.641 469.673 526.641C466.678 526.641 464.23 528.314 464.23 530.389C464.23 532.465 466.646 534.161 469.641 534.161C472.636 534.161 475.083 532.487 475.083 530.412Z" fill="#C4C4C4"/>
<path d="M469.705 526.618C472.7 526.618 475.115 528.314 475.115 530.39C475.115 532.465 472.668 534.138 469.673 534.138C466.678 534.138 464.262 532.442 464.262 530.367C464.262 528.292 466.71 526.618 469.705 526.618ZM469.705 524.521C465.035 524.499 461.235 527.109 461.203 530.345C461.171 533.581 464.939 536.214 469.608 536.236C474.278 536.258 478.078 533.647 478.11 530.412C478.142 527.176 474.375 524.543 469.705 524.521Z" fill="white"/>
<path d="M643.641 523.784C638.714 523.762 634.72 526.507 634.688 529.921C634.656 533.335 638.617 536.102 643.544 536.124C648.472 536.147 652.465 533.402 652.497 529.988C652.529 526.574 648.568 523.807 643.641 523.784Z" fill="#C4C4C4"/>
<path d="M643.641 523.784C648.568 523.806 652.529 526.573 652.497 529.988C652.465 533.402 648.472 536.146 643.544 536.124C638.617 536.102 634.656 533.335 634.688 529.921C634.72 526.507 638.714 523.762 643.641 523.784ZM643.673 521.687C637.103 521.664 631.725 525.346 631.693 529.921C631.661 534.473 636.975 538.199 643.576 538.222C650.146 538.244 655.524 534.562 655.557 529.988C655.557 525.435 650.243 521.709 643.673 521.687Z" fill="white"/>
<path d="M900.438 607.485C896.155 607.463 892.645 609.873 892.613 612.841C892.58 615.809 896.058 618.241 900.342 618.263C904.625 618.286 908.135 615.876 908.167 612.908C908.2 609.918 904.721 607.508 900.438 607.485Z" fill="#C4C4C4"/>
<path d="M900.439 607.485C904.722 607.508 908.2 609.918 908.168 612.908C908.135 615.898 904.657 618.286 900.342 618.263C896.059 618.241 892.581 615.831 892.613 612.841C892.645 609.873 896.155 607.463 900.439 607.485ZM900.439 605.388C894.481 605.365 889.618 608.713 889.586 612.841C889.553 616.969 894.384 620.339 900.342 620.361C906.3 620.383 911.163 617.036 911.195 612.908C911.227 608.78 906.396 605.41 900.439 605.388Z" fill="white"/>
<path d="M685.764 470.609C682.608 470.609 680.032 472.35 680.032 474.537C679.999 476.723 682.543 478.509 685.699 478.509C688.856 478.509 691.432 476.768 691.432 474.581C691.464 472.417 688.92 470.632 685.764 470.609Z" fill="#C4C4C4"/>
<path d="M685.764 470.609C688.92 470.609 691.464 472.394 691.432 474.581C691.4 476.768 688.856 478.531 685.7 478.509C682.544 478.486 680 476.723 680.032 474.537C680.064 472.372 682.64 470.609 685.764 470.609ZM685.796 468.512C680.998 468.49 677.037 471.19 677.037 474.537C677.005 477.861 680.901 480.606 685.732 480.606C690.53 480.628 694.492 477.928 694.492 474.581C694.492 471.256 690.595 468.534 685.796 468.512Z" fill="white"/>
<path d="M797.674 119.359C793.906 119.337 790.847 121.457 790.815 124.068C790.783 126.678 793.842 128.798 797.61 128.821C801.378 128.843 804.437 126.723 804.469 124.112C804.502 121.502 801.442 119.382 797.674 119.359Z" fill="#C4C4C4"/>
<path d="M797.675 119.359C801.442 119.382 804.47 121.502 804.47 124.112C804.437 126.723 801.378 128.821 797.61 128.821C793.842 128.821 790.815 126.678 790.815 124.068C790.847 121.457 793.907 119.359 797.675 119.359ZM797.707 117.284C792.264 117.262 787.82 120.319 787.82 124.068C787.788 127.839 792.2 130.896 797.61 130.918C803.053 130.94 807.497 127.883 807.497 124.135C807.529 120.364 803.149 117.284 797.707 117.284Z" fill="white"/>
<path d="M972.319 157.026C969.517 157.026 967.23 158.588 967.23 160.529C967.23 162.471 969.485 164.055 972.287 164.055C975.088 164.055 977.375 162.493 977.375 160.552C977.375 158.61 975.12 157.026 972.319 157.026Z" fill="#C4C4C4"/>
<path d="M972.319 157.026C975.121 157.026 977.375 158.61 977.375 160.552C977.375 162.493 975.088 164.055 972.287 164.055C969.485 164.055 967.231 162.471 967.231 160.529C967.231 158.566 969.517 157.004 972.319 157.026ZM972.351 154.928C967.875 154.906 964.236 157.405 964.203 160.507C964.171 163.609 967.778 166.13 972.254 166.153C976.731 166.175 980.37 163.676 980.402 160.574C980.402 157.472 976.795 154.928 972.351 154.928Z" fill="white"/>
<path d="M972.125 50.7874C978.148 50.8097 983.075 47.4402 983.107 43.2675C983.139 39.0947 978.276 35.6806 972.254 35.6583C966.232 35.636 961.305 39.0054 961.273 43.1782C961.24 47.3733 966.103 50.7651 972.125 50.7874Z" fill="#C4C4C4"/>
<path d="M972.222 35.6583C978.245 35.6806 983.108 39.0724 983.075 43.2675C983.043 47.4403 978.148 50.8097 972.094 50.7874C966.071 50.7651 961.209 47.3733 961.241 43.1782C961.305 39.0055 966.2 35.636 972.222 35.6583ZM972.255 33.5608C964.558 33.5384 958.278 37.8451 958.246 43.1782C958.214 48.5114 964.429 52.8627 972.126 52.885C979.823 52.9073 986.103 48.6006 986.135 43.2675C986.135 37.9567 979.919 33.6054 972.255 33.5608Z" fill="white"/>
<path d="M1145.64 102.78C1142.55 102.78 1140.07 104.498 1140.04 106.618C1140.04 108.76 1142.52 110.478 1145.58 110.501C1148.67 110.501 1151.15 108.782 1151.18 106.663C1151.21 104.52 1148.73 102.802 1145.64 102.78Z" fill="#C4C4C4"/>
<path d="M1145.64 102.78C1148.73 102.78 1151.21 104.52 1151.18 106.663C1151.18 108.805 1148.67 110.523 1145.58 110.501C1142.49 110.501 1140.01 108.76 1140.04 106.618C1140.07 104.498 1142.58 102.78 1145.64 102.78ZM1145.68 100.682C1140.94 100.66 1137.08 103.315 1137.04 106.596C1137.01 109.876 1140.84 112.554 1145.58 112.576C1150.31 112.598 1154.18 109.943 1154.21 106.663C1154.24 103.382 1150.41 100.705 1145.68 100.682Z" fill="white"/>
</g>
<defs>
<clipPath id="clip0">
<rect width="1527" height="646" fill="white"/>
</clipPath>
</defs>
</svg>
